<?xml version="1.0" standalone="no"?><!DOCTYPE svg PUBLIC "-//W3C//DTD SVG 1.1//EN" "http://www.w3.org/Graphics/SVG/1.1/DTD/svg11.dtd"><svg t="1667733830941" class="icon" viewBox="0 0 1024 1024" version="1.1" xmlns="http://www.w3.org/2000/svg" p-id="2595" xmlns:xlink="http://www.w3.org/1999/xlink" width="200" height="200"><path d="M396.288 944.128c-30.72 0-57.344-18.432-67.584-47.104v-1.024l-64.512-197.632C195.584 696.32 130.048 665.6 82.944 615.424 32.768 561.152 7.168 491.52 12.288 416.768c9.216-138.24 129.024-247.808 272.384-247.808H747.52c72.704 0 143.36 30.72 193.536 83.968 50.176 54.272 75.776 124.928 70.656 198.656-9.216 138.24-129.024 247.808-272.384 247.808H537.6c-5.12 0-10.24 3.072-12.288 8.192l-60.416 190.464c-11.264 27.648-37.888 46.08-68.608 46.08z m-12.288-66.56c3.072 7.168 9.216 8.192 12.288 8.192 3.072 0 9.216-1.024 12.288-8.192l60.416-190.464c10.24-27.648 37.888-47.104 67.584-47.104h201.728c112.64 0 206.848-83.968 214.016-192.512 4.096-57.344-16.384-112.64-55.296-154.624-38.912-41.984-93.184-65.536-150.528-65.536H284.672c-112.64 0-206.848 83.968-214.016 192.512-4.096 57.344 16.384 112.64 55.296 154.624 38.912 41.984 93.184 65.536 150.528 65.536h30.72l76.8 237.568z" fill="#4C4C4C" p-id="2596"></path><path d="M276.48 523.264c-49.152 0-88.064-39.936-88.064-88.064s39.936-88.064 88.064-88.064 88.064 39.936 88.064 88.064-38.912 88.064-88.064 88.064z m0-117.76c-16.384 0-29.696 13.312-29.696 29.696s13.312 29.696 29.696 29.696 29.696-13.312 29.696-29.696-13.312-29.696-29.696-29.696zM512 523.264c-49.152 0-88.064-39.936-88.064-88.064s39.936-88.064 88.064-88.064 88.064 39.936 88.064 88.064-38.912 88.064-88.064 88.064z m0-117.76c-16.384 0-29.696 13.312-29.696 29.696s13.312 29.696 29.696 29.696c16.384 0 29.696-13.312 29.696-29.696s-13.312-29.696-29.696-29.696zM747.52 523.264c-49.152 0-88.064-39.936-88.064-88.064s39.936-88.064 88.064-88.064 88.064 39.936 88.064 88.064-38.912 88.064-88.064 88.064z m0-117.76c-16.384 0-29.696 13.312-29.696 29.696s13.312 29.696 29.696 29.696 29.696-13.312 29.696-29.696-13.312-29.696-29.696-29.696z" fill="#FFA028" p-id="2597"></path></svg>