<?xml version="1.0" standalone="no"?><!DOCTYPE svg PUBLIC "-//W3C//DTD SVG 1.1//EN" "http://www.w3.org/Graphics/SVG/1.1/DTD/svg11.dtd"><svg t="1666506253363" class="icon" viewBox="0 0 1024 1024" version="1.1" xmlns="http://www.w3.org/2000/svg" p-id="2601" xmlns:xlink="http://www.w3.org/1999/xlink" width="200" height="200"><path d="M949 455.1L758.9 285.5c0.1-0.8 0.1-1.7 0.1-2.5V160c0-13.3-10.7-24-24-24s-24 10.7-24 24v82.8L523 75.1c-9.1-8.1-22.8-8.1-32 0l-426 380c-9.9 8.8-10.8 24-1.9 33.9 8.8 9.9 24 10.8 33.9 1.9l50.5-45.1v472.7c0 22.1 17.9 40 40 40h651c22.1 0 40-17.9 40-40v-462l38.5 34.4c4.6 4.1 10.3 6.1 16 6.1 6.6 0 13.2-2.7 17.9-8 8.8-9.9 8-25.1-1.9-33.9zM599.5 749.3h-36.6V630.6c0-22.4-3.5-38.5-10.5-48.1-7-9.7-18.5-14.5-34.4-14.5-13.5 0-25 6.3-34.6 18.9-9.6 12.6-14.4 27.5-14.4 44.7v117.8h-36.6V626.9c0-39.3-15.1-58.9-45.4-58.9-14 0-25.5 6-34.7 18s-13.7 27.2-13.7 45.8v117.6H302V542.5h36.6v32.7h0.7c14.7-25.1 36.2-37.6 64.5-37.6 13.8 0 26.1 3.8 36.6 11.4 10.6 7.6 18 17.9 22.1 30.9 15.3-28.2 38.3-42.3 68.8-42.3 45.5 0 68.2 28 68.2 84.1v127.6z m153-154.8h-94.6c-9.2 0-12.5-3.3-12.5-9.9 0-4.1-0.1-5.8 4.5-11l64.8-59.2c11.9-11.9 21.7-20.8 21.7-33.3 0-18.9-8.8-29-32-29-18.7 0-34.1 7.7-34.1 31.5 0 4.8-4.6 10.2-11.5 10.2-9.4 0-13.4-6-13.4-10.2 0-30.6 22.2-57 63.6-57 32.8 0 53.9 22.2 53.9 50.5 0 16.1-9.6 29.6-19.5 40.6L690 568.8l62.6 0.1c6.8 0 10.3 5.4 10.3 13.2 0 7.4-4.2 12.4-10.4 12.4z" p-id="2602" fill="#f4ea2a"></path></svg>